<?xml version="1.0" encoding="iso-8859-1"?>
<!-- Generator: Adobe Illustrator 19.0.0, SVG Export Plug-In . SVG Version: 6.00 Build 0)  -->
<svg version="1.1" id="Layer_1" xmlns="http://www.w3.org/2000/svg" xmlns:xlink="http://www.w3.org/1999/xlink" x="0px" y="0px"
	 viewBox="0 0 512.005 512.005" style="enable-background:new 0 0 512.005 512.005;" xml:space="preserve">
<g>
	<g>
		<path d="M498.84,278.957l-40.277-16.704l-10.795-73.365c-1.536-10.453-10.517-18.219-21.099-18.219h-58.56
			c10.816-39.296,14.933-74.603,15.787-83.2c0.597-6.016-1.365-11.968-5.397-16.448c-4.053-4.459-9.792-7.019-15.829-7.019H70.446
			c-10.56,0-19.52,7.701-21.099,18.133l-6.955,45.867h120.405c11.797,0,21.333,9.557,21.333,21.333s-9.536,21.333-21.333,21.333
			H35.928l-3.243,21.333h124.288c11.776,0,21.333,9.557,21.333,21.333s-9.557,21.333-21.333,21.333H26.222l-5.973,39.424
			L0.366,380.077c-1.173,6.229,0.512,12.672,4.544,17.557c4.053,4.885,10.091,7.701,16.427,7.701h46.592
			c8.832,24.768,32.299,42.667,60.075,42.667s51.243-17.899,60.075-42.667H323.93c8.832,24.768,32.299,42.667,60.075,42.667
			s51.243-17.899,60.075-42.667h46.592c11.776,0,21.333-9.557,21.333-21.333v-85.333
			C512.003,290.051,506.798,282.264,498.84,278.957z M469.337,362.669h-0.001h-24.981c-0.256-0.725-0.64-1.365-0.917-2.069
			c-0.469-1.195-1.024-2.325-1.557-3.477c-1.109-2.368-2.347-4.651-3.733-6.869c-0.64-1.045-1.259-2.091-1.984-3.093
			c-1.792-2.517-3.755-4.907-5.888-7.147c-0.448-0.469-0.832-1.003-1.28-1.451c-2.645-2.624-5.547-4.971-8.597-7.104
			c-0.853-0.576-1.792-1.067-2.667-1.621c-2.325-1.451-4.715-2.773-7.211-3.925c-1.173-0.533-2.368-1.003-3.584-1.472
			c-2.496-0.981-5.056-1.749-7.68-2.389c-1.173-0.299-2.304-0.64-3.499-0.853c-3.819-0.725-7.723-1.195-11.755-1.195
			c-4.032,0-7.936,0.469-11.755,1.195c-1.195,0.213-2.325,0.555-3.499,0.853c-2.624,0.64-5.184,1.408-7.68,2.389
			c-1.216,0.469-2.389,0.939-3.563,1.472c-2.517,1.152-4.907,2.475-7.232,3.925c-0.875,0.555-1.813,1.045-2.667,1.621
			c-3.051,2.133-5.952,4.48-8.597,7.104c-0.448,0.448-0.832,0.981-1.28,1.451c-2.133,2.24-4.096,4.629-5.888,7.147
			c-0.704,1.003-1.344,2.048-1.984,3.093c-1.387,2.219-2.624,4.501-3.733,6.869c-0.555,1.152-1.088,2.283-1.557,3.477
			c-0.277,0.704-0.661,1.344-0.917,2.069H188.355c-0.256-0.725-0.64-1.365-0.917-2.069c-0.469-1.195-1.024-2.325-1.557-3.477
			c-1.109-2.368-2.347-4.651-3.733-6.869c-0.64-1.045-1.259-2.091-1.984-3.093c-1.792-2.517-3.755-4.907-5.888-7.147
			c-0.448-0.469-0.832-1.003-1.28-1.451c-2.645-2.624-5.547-4.971-8.597-7.104c-0.853-0.576-1.792-1.067-2.667-1.621
			c-2.325-1.451-4.715-2.773-7.211-3.925c-1.173-0.533-2.368-1.003-3.584-1.472c-2.496-0.981-5.056-1.749-7.68-2.389
			c-1.173-0.299-2.304-0.64-3.499-0.853c-3.819-0.725-7.723-1.195-11.755-1.195s-7.936,0.469-11.755,1.195
			c-1.195,0.213-2.325,0.555-3.499,0.853c-2.624,0.64-5.184,1.408-7.68,2.389c-1.216,0.469-2.389,0.939-3.563,1.472
			c-2.517,1.152-4.907,2.475-7.232,3.925c-0.875,0.555-1.813,1.045-2.667,1.621c-3.051,2.133-5.952,4.48-8.597,7.104
			c-0.448,0.448-0.832,0.981-1.28,1.451c-2.133,2.24-4.096,4.629-5.888,7.147c-0.704,1.003-1.344,2.048-1.984,3.093
			c-1.387,2.219-2.624,4.501-3.733,6.869c-0.555,1.152-1.088,2.283-1.557,3.477c-0.277,0.704-0.661,1.344-0.917,2.069H47.043
			l11.947-63.723h200.213c5.717,0,11.243-0.768,16.619-1.963c1.472-0.341,2.859-0.853,4.288-1.259
			c3.861-1.131,7.68-2.517,11.371-4.267c1.323-0.64,2.624-1.323,3.904-2.027c3.627-1.984,7.168-4.288,10.603-6.912
			c1.045-0.789,2.091-1.557,3.115-2.389c3.349-2.773,6.613-5.931,9.771-9.323c0.939-1.003,1.899-1.92,2.816-2.965
			c2.667-3.051,5.227-6.443,7.744-9.941c1.301-1.792,2.645-3.499,3.883-5.355c1.515-2.325,2.965-4.843,4.437-7.317
			c2.197-3.669,4.352-7.339,6.357-11.2c0.384-0.725,0.725-1.515,1.109-2.261c3.029-5.995,5.824-12.139,8.427-18.432h54.592
			l9.877,67.115c1.088,7.424,5.995,13.717,12.949,16.597l38.272,15.872V362.669z"/>
	</g>
</g>
<g>
</g>
<g>
</g>
<g>
</g>
<g>
</g>
<g>
</g>
<g>
</g>
<g>
</g>
<g>
</g>
<g>
</g>
<g>
</g>
<g>
</g>
<g>
</g>
<g>
</g>
<g>
</g>
<g>
</g>
</svg>
